<svg version="1.1" id="Layer_1" xmlns="http://www.w3.org/2000/svg" xmlns:xlink="http://www.w3.org/1999/xlink" x="0px" y="0px"
	 width="100%" viewBox="0 0 222 57" enable-background="new 0 0 222 57" xml:space="preserve">
<path fill="#FBFAFA" opacity="1.000000" stroke="none" 
	d="
M181.000000,58.000000 
	C120.720322,58.000000 60.940643,58.000000 1.080483,58.000000 
	C1.080483,39.070965 1.080483,20.141531 1.080483,1.106041 
	C74.999908,1.106041 148.999924,1.106041 222.981354,1.106041 
	C222.981354,20.058935 222.981354,39.029480 222.981354,58.000000 
	C209.141815,58.000000 195.320908,58.000000 181.000000,58.000000 
M177.196823,13.013735 
	C177.462189,12.005516 177.727554,10.997297 178.910904,10.079437 
	C181.062836,10.056071 183.220459,9.922694 185.365417,10.033908 
	C189.012711,10.223017 188.376694,8.315633 187.716431,6.163151 
	C183.928329,6.163151 180.463257,6.163151 176.110916,6.040406 
	C175.689560,12.400826 175.231674,18.759735 174.968307,25.126688 
	C174.956680,25.408001 176.720703,25.762762 178.094528,26.232788 
	C178.094528,23.124697 178.094528,20.679266 178.984406,18.098656 
	C181.569809,18.098656 184.155212,18.098656 186.740616,18.098656 
	C186.989670,17.534521 187.238724,16.970387 187.487778,16.406252 
	C186.334320,15.601727 185.272491,14.350792 184.007233,14.091126 
	C181.781204,13.634282 179.430801,13.783372 177.196823,13.013735 
M105.745461,37.941319 
	C105.428802,42.792789 105.056084,47.642311 104.887527,52.498917 
	C104.871735,52.954021 106.144737,53.453854 106.819351,53.932922 
	C107.268272,53.202477 108.123528,52.458992 108.100578,51.743687 
	C107.944084,46.866714 107.602859,41.995667 108.075661,37.283318 
	C109.943581,37.580120 111.811493,37.876923 113.954895,38.217499 
	C113.954895,36.523392 113.954895,35.439095 113.954895,34.200493 
	C108.902641,34.200493 103.981476,34.200493 99.129997,34.200493 
	C97.988396,37.425655 99.387566,38.361443 102.158691,37.980167 
	C103.366089,37.814049 104.539948,37.404228 105.745461,37.941319 
M100.955208,25.991079 
	C104.875328,25.991079 108.795448,25.991079 112.715569,25.991079 
	C113.005135,25.551096 113.294701,25.111113 113.584267,24.671129 
	C112.539940,23.782545 111.592552,22.321527 110.431068,22.124846 
	C108.031792,21.718559 105.518425,21.985970 102.877724,21.058773 
	C102.871529,16.920942 103.047203,12.769286 102.734375,8.654767 
	C102.653717,7.593942 101.037521,6.649865 100.126709,5.652157 
	C98.975449,9.125140 98.849670,11.600152 99.004189,14.057538 
	C99.251549,17.991259 99.684776,21.913292 100.955208,25.991079 
M68.094757,55.980583 
	C68.094757,55.980583 68.199974,56.123650 68.790604,55.515835 
	C68.832062,38.946262 68.929382,22.376240 68.795784,5.808078 
	C68.786362,4.639211 67.074196,3.484073 65.345284,2.110597 
	C49.733273,2.108603 34.121254,2.115091 18.509256,2.101319 
	C9.653704,2.093507 9.653717,2.078552 10.098798,11.895943 
	C10.090224,25.343094 10.013409,38.791058 10.173464,52.236202 
	C10.190381,53.657391 11.598906,55.062008 12.835283,56.803432 
	C13.210355,56.759384 13.585427,56.715340 14.718506,56.808628 
	C15.484573,56.768806 16.250641,56.728989 17.499563,56.837799 
	C17.658920,56.783348 17.818279,56.728897 18.908321,56.808983 
	C34.956890,56.755692 51.005463,56.702396 67.533958,56.797970 
	C67.750740,56.574871 67.967529,56.351772 68.094757,55.980583 
M158.866180,48.720650 
	C158.006210,47.637756 157.146225,46.554867 156.286255,45.471973 
	C156.816696,45.571186 157.347122,45.670399 157.877563,45.769615 
	C158.756058,43.269081 160.469879,40.716148 160.317093,38.280304 
	C160.088425,34.634758 156.744751,33.982937 153.552750,33.971455 
	C150.633682,33.960957 147.714539,33.969231 144.408997,33.969231 
	C144.408997,40.183525 144.292160,45.802059 144.515274,51.407055 
	C144.556076,52.432022 145.980972,53.401894 146.766953,54.397198 
	C147.232391,54.111912 147.697845,53.826626 148.163300,53.541340 
	C148.163300,51.124912 148.163300,48.708488 148.163300,46.417316 
	C155.417923,44.258804 154.385529,56.330723 161.900131,53.596111 
	C160.989380,52.076363 160.150269,50.676144 158.866180,48.720650 
M180.278961,49.983643 
	C178.280502,49.984745 176.201508,50.319252 174.313522,49.863083 
	C173.163498,49.585217 172.307877,48.088802 171.320007,47.139732 
	C171.657059,46.725971 171.994110,46.312214 172.331161,45.898453 
	C175.446991,45.898453 178.562820,45.898453 182.547333,45.898453 
	C180.536957,39.240604 174.987473,43.726223 171.218918,40.656563 
	C172.365204,39.743671 173.337234,38.428631 174.559982,38.125740 
	C176.285629,37.698284 178.282837,38.351963 179.999161,37.907349 
	C181.199524,37.596390 182.124268,36.221588 183.172119,35.321938 
	C182.852020,35.002048 182.531906,34.682163 182.211807,34.362274 
	C177.490753,34.362274 172.769699,34.362274 168.173279,34.362274 
	C168.173279,41.024281 168.173279,47.299644 168.173279,53.792915 
	C173.158722,53.792915 177.907974,53.792915 184.064911,53.792915 
	C182.723114,52.001858 181.969772,50.996273 180.278961,49.983643 
M119.800400,38.607849 
	C117.782967,45.695217 118.925720,50.647648 123.084816,52.841747 
	C127.598351,55.222820 133.380096,53.898750 135.969574,49.891029 
	C138.534531,45.921268 137.655121,38.965527 134.230591,36.136440 
	C130.051804,32.684250 124.404366,33.376587 119.800400,38.607849 
M79.132965,24.675951 
	C80.055092,25.043987 80.948334,25.535294 81.904213,25.759293 
	C86.739571,26.892399 91.455681,24.794313 92.041512,21.104956 
	C92.864876,15.919712 89.228279,14.679535 85.251625,13.738624 
	C83.689011,13.368896 82.212898,12.633588 80.697388,12.064764 
	C80.883148,11.382391 81.068916,10.700018 81.254684,10.017645 
	C84.533417,10.603643 87.812149,11.189641 91.388161,11.828772 
	C90.355896,6.353988 86.533340,5.468281 82.688736,6.236708 
	C80.566940,6.660794 77.603172,8.886157 77.211937,10.757879 
	C76.269737,15.265416 80.128021,16.325314 83.682388,17.192642 
	C85.363152,17.602776 86.954597,18.378952 88.903633,19.107883 
	C84.307632,25.997194 80.441818,18.166069 75.750992,19.261538 
	C76.848244,21.152130 77.712982,22.642099 79.132965,24.675951 
M81.309319,53.628746 
	C81.959351,53.753117 82.608696,53.980591 83.259537,53.984993 
	C87.257637,54.012020 91.299805,53.617847 92.069160,48.726074 
	C92.831879,43.876411 89.111183,42.706589 85.366982,41.779160 
	C83.759361,41.380955 82.228828,40.671539 80.663277,40.103523 
	C80.829361,39.430149 80.995453,38.756771 81.161537,38.083397 
	C84.478867,38.647251 87.796196,39.211109 91.113533,39.774963 
	C91.273994,39.355705 91.434464,38.936447 91.594925,38.517193 
	C89.838440,37.268230 88.219887,35.720264 86.296555,34.832962 
	C82.372025,33.022446 78.378067,34.412651 77.208839,37.657970 
	C76.034599,40.917206 78.078651,43.668747 82.602638,44.995686 
	C84.588593,45.578190 86.548393,46.249859 88.929031,47.011963 
	C84.481377,54.278004 80.276848,45.616734 75.003029,47.791515 
	C77.280624,50.027737 78.936249,51.653294 81.309319,53.628746 
M135.892914,21.706432 
	C134.150162,17.231798 132.496689,12.718628 130.595215,8.312482 
	C130.175171,7.339137 128.951752,6.262857 127.962807,6.109934 
	C126.954918,5.954084 125.106384,6.598712 124.785309,7.373381 
	C122.298195,13.374206 120.091980,19.491453 117.798798,25.572659 
	C118.223389,25.931782 118.647980,26.290907 119.072571,26.650032 
	C120.211761,25.686985 121.276291,24.612072 122.509041,23.789179 
	C124.052803,22.758694 125.639748,21.533888 127.380554,21.121956 
	C129.651978,20.584465 131.786240,20.875725 132.680466,23.950611 
	C132.992035,25.021952 135.120026,25.565046 136.418457,26.349392 
	C136.648392,25.981016 136.878326,25.612642 137.108261,25.244268 
	C136.768494,24.324142 136.428726,23.404018 135.892914,21.706432 
M149.952682,17.263859 
	C152.123230,13.691187 154.293777,10.118515 156.610382,6.305452 
	C150.017624,4.776567 151.116135,11.664687 147.664474,13.112486 
	C142.686615,6.122917 142.686615,6.122917 140.320251,6.708242 
	C142.690094,12.923188 145.086288,19.207232 147.714325,26.099272 
	C148.139221,25.571514 149.375641,24.683020 149.630905,23.569580 
	C150.030960,21.824644 149.768280,19.927767 149.952682,17.263859 
M205.870682,9.302066 
	C207.722397,9.702974 209.574097,10.103882 211.745438,10.573991 
	C211.745438,14.886162 211.663773,19.168741 211.813950,23.443174 
	C211.844193,24.304169 212.753845,25.134268 213.258041,25.978613 
	C213.894714,25.099642 215.041794,24.243050 215.081482,23.337900 
	C215.273560,18.957693 215.168076,14.564439 215.168076,10.251617 
	C220.928772,9.859644 220.928772,9.859644 220.707703,6.007714 
	C216.455734,6.007714 212.167786,5.894084 207.897003,6.113969 
	C207.141098,6.152887 206.456772,7.582065 205.870682,9.302066 
M198.727997,11.684135 
	C198.741699,6.092336 198.741699,6.092336 195.210098,6.662319 
	C195.210098,13.084945 195.210098,19.489010 195.210098,25.893076 
	C195.698837,26.109325 196.187561,26.325577 196.676300,26.541828 
	C197.361526,25.393797 198.546341,24.283955 198.637573,23.090521 
	C198.902679,19.622398 198.729523,16.120775 198.727997,11.684135 
z"/>
<path fill="#542F41" opacity="1.000000" stroke="none" 
	d="
M159.088669,48.998291 
	C160.150269,50.676144 160.989380,52.076363 161.900131,53.596111 
	C154.385529,56.330723 155.417923,44.258804 148.163300,46.417316 
	C148.163300,48.708488 148.163300,51.124912 148.163300,53.541340 
	C147.697845,53.826626 147.232391,54.111912 146.766953,54.397198 
	C145.980972,53.401894 144.556076,52.432022 144.515274,51.407055 
	C144.292160,45.802059 144.408997,40.183525 144.408997,33.969231 
	C147.714539,33.969231 150.633682,33.960957 153.552750,33.971455 
	C156.744751,33.982937 160.088425,34.634758 160.317093,38.280304 
	C160.469879,40.716148 158.756058,43.269081 157.877563,45.769615 
	C157.347122,45.670399 156.816696,45.571186 156.286255,45.471973 
	C157.146225,46.554867 158.006210,47.637756 159.088669,48.998291 
M150.584213,41.984119 
	C152.466583,41.639969 154.356461,41.325737 156.208359,40.860363 
	C156.297836,40.837879 156.160172,38.882095 155.947632,38.844376 
	C153.462311,38.403252 150.942352,38.157425 146.815552,37.668575 
	C148.401917,40.007633 149.067703,40.989326 150.584213,41.984119 
z"/>
<path fill="#4C263A" opacity="1.000000" stroke="none" 
	d="
M180.747696,49.987167 
	C181.969772,50.996273 182.723114,52.001858 184.064911,53.792915 
	C177.907974,53.792915 173.158722,53.792915 168.173279,53.792915 
	C168.173279,47.299644 168.173279,41.024281 168.173279,34.362274 
	C172.769699,34.362274 177.490753,34.362274 182.211807,34.362274 
	C182.531906,34.682163 182.852020,35.002048 183.172119,35.321938 
	C182.124268,36.221588 181.199524,37.596390 179.999161,37.907349 
	C178.282837,38.351963 176.285629,37.698284 174.559982,38.125740 
	C173.337234,38.428631 172.365204,39.743671 171.218918,40.656563 
	C174.987473,43.726223 180.536957,39.240604 182.547333,45.898453 
	C178.562820,45.898453 175.446991,45.898453 172.331161,45.898453 
	C171.994110,46.312214 171.657059,46.725971 171.320007,47.139732 
	C172.307877,48.088802 173.163498,49.585217 174.313522,49.863083 
	C176.201508,50.319252 178.280502,49.984745 180.747696,49.987167 
z"/>
<path fill="#744D53" opacity="1.000000" stroke="none" 
	d="
M17.016708,56.689167 
	C16.250641,56.728989 15.484573,56.768806 14.103074,56.570000 
	C13.112368,56.379017 12.737094,56.426666 12.361819,56.474316 
	C11.598906,55.062008 10.190381,53.657391 10.173464,52.236202 
	C10.013409,38.791058 10.090224,25.343094 10.392351,11.129839 
	C11.234959,8.279833 11.784014,6.195932 12.229681,4.561501 
	C12.126293,21.562950 12.126293,38.114929 12.126293,54.889400 
	C30.850416,54.889400 48.801064,54.889400 67.039764,55.034203 
	C67.618530,55.493885 67.909248,55.808769 68.199974,56.123650 
	C68.199974,56.123650 68.094757,55.980583 67.922081,56.068649 
	C67.457230,56.235588 67.225441,56.399719 67.054031,56.649105 
	C51.005463,56.702396 34.956890,56.755692 18.348555,56.613678 
	C17.456705,56.260872 17.199347,56.351135 17.016708,56.689167 
z"/>
<path fill="#4E2B3F" opacity="1.000000" stroke="none" 
	d="
M119.943695,38.239098 
	C124.404366,33.376587 130.051804,32.684250 134.230591,36.136440 
	C137.655121,38.965527 138.534531,45.921268 135.969574,49.891029 
	C133.380096,53.898750 127.598351,55.222820 123.084816,52.841747 
	C118.925720,50.647648 117.782967,45.695217 119.943695,38.239098 
M129.960678,38.149647 
	C126.765068,37.645462 123.486351,37.898628 122.859230,41.592232 
	C122.472023,43.872787 123.046120,47.368649 124.577698,48.623413 
	C126.072792,49.848278 129.586426,49.593231 131.761261,48.778915 
	C135.213699,47.486233 134.629028,43.113827 129.960678,38.149647 
z"/>
<path fill="#512E3E" opacity="1.000000" stroke="none" 
	d="
M78.855347,24.404011 
	C77.712982,22.642099 76.848244,21.152130 75.750992,19.261538 
	C80.441818,18.166069 84.307632,25.997194 88.903633,19.107883 
	C86.954597,18.378952 85.363152,17.602776 83.682388,17.192642 
	C80.128021,16.325314 76.269737,15.265416 77.211937,10.757879 
	C77.603172,8.886157 80.566940,6.660794 82.688736,6.236708 
	C86.533340,5.468281 90.355896,6.353988 91.388161,11.828772 
	C87.812149,11.189641 84.533417,10.603643 81.254684,10.017645 
	C81.068916,10.700018 80.883148,11.382391 80.697388,12.064764 
	C82.212898,12.633588 83.689011,13.368896 85.251625,13.738624 
	C89.228279,14.679535 92.864876,15.919712 92.041512,21.104956 
	C91.455681,24.794313 86.739571,26.892399 81.904213,25.759293 
	C80.948334,25.535294 80.055092,25.043987 78.855347,24.404011 
z"/>
<path fill="#512C3D" opacity="1.000000" stroke="none" 
	d="
M80.950600,53.453800 
	C78.936249,51.653294 77.280624,50.027737 75.003029,47.791515 
	C80.276848,45.616734 84.481377,54.278004 88.929031,47.011963 
	C86.548393,46.249859 84.588593,45.578190 82.602638,44.995686 
	C78.078651,43.668747 76.034599,40.917206 77.208839,37.657970 
	C78.378067,34.412651 82.372025,33.022446 86.296555,34.832962 
	C88.219887,35.720264 89.838440,37.268230 91.594925,38.517193 
	C91.434464,38.936447 91.273994,39.355705 91.113533,39.774963 
	C87.796196,39.211109 84.478867,38.647251 81.161537,38.083397 
	C80.995453,38.756771 80.829361,39.430149 80.663277,40.103523 
	C82.228828,40.671539 83.759361,41.380955 85.366982,41.779160 
	C89.111183,42.706589 92.831879,43.876411 92.069160,48.726074 
	C91.299805,53.617847 87.257637,54.012020 83.259537,53.984993 
	C82.608696,53.980591 81.959351,53.753117 80.950600,53.453800 
z"/>
<path fill="#522D3F" opacity="1.000000" stroke="none" 
	d="
M135.990936,22.095161 
	C136.428726,23.404018 136.768494,24.324142 137.108261,25.244268 
	C136.878326,25.612642 136.648392,25.981016 136.418457,26.349392 
	C135.120026,25.565046 132.992035,25.021952 132.680466,23.950611 
	C131.786240,20.875725 129.651978,20.584465 127.380554,21.121956 
	C125.639748,21.533888 124.052803,22.758694 122.509041,23.789179 
	C121.276291,24.612072 120.211761,25.686985 119.072571,26.650032 
	C118.647980,26.290907 118.223389,25.931782 117.798798,25.572659 
	C120.091980,19.491453 122.298195,13.374206 124.785309,7.373381 
	C125.106384,6.598712 126.954918,5.954084 127.962807,6.109934 
	C128.951752,6.262857 130.175171,7.339137 130.595215,8.312482 
	C132.496689,12.718628 134.150162,17.231798 135.990936,22.095161 
M127.481674,18.018482 
	C128.278000,17.953007 129.074310,17.887533 130.354248,17.782295 
	C129.443176,15.273150 128.629929,13.033372 127.816666,10.793592 
	C127.251762,13.373131 123.031837,15.374836 127.481674,18.018482 
z"/>
<path fill="#563646" opacity="1.000000" stroke="none" 
	d="
M149.869476,17.679550 
	C149.768280,19.927767 150.030960,21.824644 149.630905,23.569580 
	C149.375641,24.683020 148.139221,25.571514 147.714325,26.099272 
	C145.086288,19.207232 142.690094,12.923188 140.320251,6.708242 
	C142.686615,6.122917 142.686615,6.122917 147.664474,13.112486 
	C151.116135,11.664687 150.017624,4.776567 156.610382,6.305452 
	C154.293777,10.118515 152.123230,13.691187 149.869476,17.679550 
z"/>
<path fill="#845B63" opacity="1.000000" stroke="none" 
	d="
M12.333070,4.112032 
	C11.784014,6.195932 11.234959,8.279833 10.454622,10.662588 
	C9.653717,2.078552 9.653704,2.093507 18.509256,2.101319 
	C34.121254,2.115091 49.733273,2.108603 65.707832,2.625941 
	C66.050247,3.414496 66.030121,3.687708 65.541313,3.991953 
	C47.492779,4.052668 29.912924,4.082350 12.333070,4.112032 
z"/>
<path fill="#462134" opacity="1.000000" stroke="none" 
	d="
M205.805054,8.835653 
	C206.456772,7.582065 207.141098,6.152887 207.897003,6.113969 
	C212.167786,5.894084 216.455734,6.007714 220.707703,6.007714 
	C220.928772,9.859644 220.928772,9.859644 215.168076,10.251617 
	C215.168076,14.564439 215.273560,18.957693 215.081482,23.337900 
	C215.041794,24.243050 213.894714,25.099642 213.258041,25.978611 
	C212.753845,25.134268 211.844193,24.304169 211.813950,23.443174 
	C211.663773,19.168741 211.745438,14.886162 211.745438,10.573991 
	C209.574097,10.103882 207.722397,9.702974 205.805054,8.835653 
z"/>
<path fill="#734E54" opacity="1.000000" stroke="none" 
	d="
M66.009995,3.960920 
	C66.030121,3.687708 66.050247,3.414496 66.112091,2.731918 
	C67.074196,3.484073 68.786362,4.639211 68.795784,5.808078 
	C68.929382,22.376240 68.832062,38.946262 68.495285,55.819744 
	C67.909248,55.808769 67.618530,55.493885 67.101585,54.578156 
	C66.898804,38.536560 66.943649,23.095749 66.904999,7.655149 
	C66.901917,6.423000 66.321899,5.192296 66.009995,3.960920 
z"/>
<path fill="#583A4F" opacity="1.000000" stroke="none" 
	d="
M198.728149,12.158215 
	C198.729523,16.120775 198.902679,19.622398 198.637573,23.090521 
	C198.546341,24.283955 197.361526,25.393797 196.676300,26.541828 
	C196.187561,26.325577 195.698837,26.109325 195.210098,25.893076 
	C195.210098,19.489010 195.210098,13.084945 195.210098,6.662319 
	C198.741699,6.092336 198.741699,6.092336 198.728149,12.158215 
z"/>
<path fill="#5B3249" opacity="1.000000" stroke="none" 
	d="
M100.039429,25.840263 
	C99.684776,21.913292 99.251549,17.991259 99.004189,14.057538 
	C98.849670,11.600152 98.975449,9.125140 100.126709,5.652157 
	C101.037521,6.649865 102.653717,7.593942 102.734375,8.654767 
	C103.047203,12.769286 102.871529,16.920942 102.698830,21.556347 
	C101.693100,23.316032 100.866257,24.578146 100.039429,25.840263 
z"/>
<path fill="#422132" opacity="1.000000" stroke="none" 
	d="
M105.729042,37.105087 
	C104.539948,37.404228 103.366089,37.814049 102.158691,37.980167 
	C99.387566,38.361443 97.988396,37.425655 99.129997,34.200493 
	C103.981476,34.200493 108.902641,34.200493 113.954895,34.200493 
	C113.954895,35.439095 113.954895,36.523392 113.954895,38.217499 
	C111.811493,37.876923 109.943581,37.580120 107.300545,37.187183 
	C106.259964,37.095726 105.994507,37.100407 105.729042,37.105087 
z"/>
<path fill="#47202D" opacity="1.000000" stroke="none" 
	d="
M177.992935,9.989079 
	C177.727554,10.997297 177.462189,12.005516 177.159363,13.737343 
	C177.446121,15.718579 177.770325,16.976208 178.094528,18.233837 
	C178.094528,20.679266 178.094528,23.124697 178.094528,26.232788 
	C176.720703,25.762762 174.956680,25.408001 174.968307,25.126688 
	C175.231674,18.759735 175.689560,12.400826 176.558868,6.437492 
	C177.335526,7.886079 177.664230,8.937579 177.992935,9.989079 
z"/>
<path fill="#441F33" opacity="1.000000" stroke="none" 
	d="
M100.497314,25.915670 
	C100.866257,24.578146 101.693100,23.316032 102.785965,22.015091 
	C105.518425,21.985970 108.031792,21.718559 110.431068,22.124846 
	C111.592552,22.321527 112.539940,23.782545 113.584267,24.671129 
	C113.294701,25.111113 113.005135,25.551096 112.715569,25.991079 
	C108.795448,25.991079 104.875328,25.991079 100.497314,25.915670 
z"/>
<path fill="#442130" opacity="1.000000" stroke="none" 
	d="
M105.737251,37.523205 
	C105.994507,37.100407 106.259964,37.095726 106.923332,37.106880 
	C107.602859,41.995667 107.944084,46.866714 108.100578,51.743687 
	C108.123528,52.458992 107.268272,53.202477 106.819351,53.932922 
	C106.144737,53.453854 104.871735,52.954021 104.887527,52.498917 
	C105.056084,47.642311 105.428802,42.792789 105.737251,37.523205 
z"/>
<path fill="#442134" opacity="1.000000" stroke="none" 
	d="
M178.451920,10.034258 
	C177.664230,8.937579 177.335526,7.886079 177.002502,6.498865 
	C180.463257,6.163151 183.928329,6.163151 187.716431,6.163151 
	C188.376694,8.315633 189.012711,10.223017 185.365417,10.033908 
	C183.220459,9.922694 181.062836,10.056071 178.451920,10.034258 
z"/>
<path fill="#452338" opacity="1.000000" stroke="none" 
	d="
M178.539459,18.166246 
	C177.770325,16.976208 177.446121,15.718579 177.127197,14.069837 
	C179.430801,13.783372 181.781204,13.634282 184.007233,14.091126 
	C185.272491,14.350792 186.334320,15.601727 187.487778,16.406252 
	C187.238724,16.970387 186.989670,17.534521 186.740616,18.098656 
	C184.155212,18.098656 181.569809,18.098656 178.539459,18.166246 
z"/>
<path fill="#845B62" opacity="1.000000" stroke="none" 
	d="
M12.598551,56.638874 
	C12.737094,56.426666 13.112368,56.379017 13.724071,56.501328 
	C13.585427,56.715340 13.210355,56.759384 12.598551,56.638874 
z"/>
<path fill="#845B62" opacity="1.000000" stroke="none" 
	d="
M17.258137,56.763481 
	C17.199347,56.351135 17.456705,56.260872 17.883213,56.546413 
	C17.818279,56.728897 17.658920,56.783348 17.258137,56.763481 
z"/>
<path fill="#734E54" opacity="1.000000" stroke="none" 
	d="
M67.293991,56.723537 
	C67.225441,56.399719 67.457230,56.235588 67.966858,56.142693 
	C67.967529,56.351772 67.750740,56.574871 67.293991,56.723537 
z"/>
<path fill="#F3E7ED" opacity="1.000000" stroke="none" 
	d="
M150.158844,41.977570 
	C149.067703,40.989326 148.401917,40.007633 146.815552,37.668575 
	C150.942352,38.157425 153.462311,38.403252 155.947632,38.844376 
	C156.160172,38.882095 156.297836,40.837879 156.208359,40.860363 
	C154.356461,41.325737 152.466583,41.639969 150.158844,41.977570 
z"/>
<path fill="#DA8092" opacity="1.000000" stroke="none" 
	d="
M65.541313,3.991952 
	C66.321899,5.192296 66.901917,6.423000 66.904999,7.655149 
	C66.943649,23.095749 66.898804,38.536560 66.813538,54.433357 
	C48.801064,54.889400 30.850416,54.889400 12.126293,54.889400 
	C12.126293,38.114929 12.126293,21.562950 12.229681,4.561501 
	C29.912924,4.082350 47.492779,4.052668 65.541313,3.991952 
M16.797794,9.916739 
	C16.883041,23.282057 16.968290,36.647373 17.440376,50.781681 
	C31.621971,50.845310 45.803558,50.922089 59.985188,50.931122 
	C60.647209,50.931541 61.309616,50.327248 62.181934,49.086052 
	C62.200958,36.688297 62.256496,24.290327 62.183029,11.893121 
	C62.175610,10.640799 61.389244,9.393091 60.038971,8.019033 
	C47.183388,8.014174 34.327625,7.976932 21.472467,8.048390 
	C19.986042,8.056653 18.502972,8.668949 16.797794,9.916739 
z"/>
<path fill="#F2ECED" opacity="1.000000" stroke="none" 
	d="
M130.325195,38.301552 
	C134.629028,43.113827 135.213699,47.486233 131.761261,48.778915 
	C129.586426,49.593231 126.072792,49.848278 124.577698,48.623413 
	C123.046120,47.368649 122.472023,43.872787 122.859230,41.592232 
	C123.486351,37.898628 126.765068,37.645462 130.325195,38.301552 
z"/>
<path fill="#EBDCE3" opacity="1.000000" stroke="none" 
	d="
M127.064644,18.021635 
	C123.031837,15.374836 127.251762,13.373131 127.816666,10.793592 
	C128.629929,13.033372 129.443176,15.273150 130.354248,17.782295 
	C129.074310,17.887533 128.278000,17.953007 127.064644,18.021635 
z"/>
<path fill="#1E0103" opacity="1.000000" stroke="none" 
	d="
M61.971840,50.004585 
	C61.309616,50.327248 60.647209,50.931541 59.985188,50.931122 
	C45.803558,50.922089 31.621971,50.845310 17.515013,50.399147 
	C17.766630,49.991684 17.943613,49.966755 18.581047,49.965855 
	C32.992294,49.976742 46.943092,49.963596 61.162453,49.982437 
	C61.611290,50.011143 61.791565,50.007862 61.971840,50.004585 
z"/>
<path fill="#220001" opacity="1.000000" stroke="none" 
	d="
M17.018347,9.001195 
	C18.502972,8.668949 19.986042,8.056653 21.472467,8.048390 
	C34.327625,7.976932 47.183388,8.014174 60.491543,8.322844 
	C60.944115,8.626654 60.964977,9.110078 60.500919,9.061503 
	C46.064781,9.028509 32.092705,9.044088 17.845707,9.032779 
	C17.386642,9.004324 17.202496,9.002760 17.018347,9.001195 
z"/>
<path fill="#3D1A21" opacity="1.000000" stroke="none" 
	d="
M60.964977,9.110078 
	C60.964977,9.110078 60.944115,8.626654 60.954239,8.384948 
	C61.389244,9.393091 62.175610,10.640799 62.183029,11.893121 
	C62.256496,24.290327 62.200958,36.688297 62.076889,49.545319 
	C61.791565,50.007862 61.611290,50.011143 61.208286,49.518921 
	C60.978699,35.718975 60.971836,22.414526 60.964977,9.110078 
z"/>
<path fill="#3A1C22" opacity="1.000000" stroke="none" 
	d="
M16.908070,9.458967 
	C17.202496,9.002760 17.386642,9.004324 17.793316,9.494965 
	C18.050758,23.303301 18.085676,36.622562 18.120594,49.941822 
	C17.943613,49.966755 17.766630,49.991684 17.321594,50.014648 
	C16.968290,36.647373 16.883041,23.282057 16.908070,9.458967 
z"/>
<path fill="#FFFEFF" opacity="1.000000" stroke="none" 
	d="
M18.581047,49.965855 
	C18.085676,36.622562 18.050758,23.303301 18.068233,9.521854 
	C32.092705,9.044088 46.064781,9.028509 60.500919,9.061503 
	C60.971836,22.414526 60.978699,35.718975 60.939728,49.486938 
	C46.943092,49.963596 32.992294,49.976742 18.581047,49.965855 
z"/>
</svg>